<svg width="288" height="47" viewBox="0 0 288 47" fill="none" xmlns="http://www.w3.org/2000/svg">
<path d="M0 46.1815C1.20397 42.7424 2.14488 39.0374 2.81938 35.0685C3.49724 31.096 3.83786 27.0721 3.83786 22.9986C3.83786 19.3238 3.52759 15.6596 2.90706 12.006C2.28653 8.34891 1.31695 4.84064 0 1.48121C0.866722 1.36427 1.9965 1.24555 3.38595 1.12684C4.77878 1.0099 6.21882 0.919532 7.7027 0.857517C9.18995 0.797274 10.517 0.765381 11.6822 0.765381C14.2756 0.765381 16.8235 0.924847 19.3242 1.24024C21.8282 1.5574 24.103 2.11199 26.1501 2.90578C28.2005 3.69603 29.8361 4.81052 31.0604 6.25104C32.2829 7.69333 32.895 9.5396 32.895 11.7934C32.895 13.179 32.5544 14.3945 31.8765 15.4434C31.202 16.4888 30.3656 17.3765 29.3674 18.1083C28.3725 18.8418 27.3861 19.4336 26.4064 19.8872C25.43 20.3408 24.6206 20.6668 23.9782 20.8653C23.8298 20.9078 23.7556 21.0673 23.7556 21.3401C23.7556 21.5776 23.85 21.6945 24.0389 21.6945C26.3676 21.5386 28.3894 21.8682 30.1026 22.6797C31.8158 23.4876 33.1412 24.6252 34.0821 26.0887C35.0213 27.5487 35.4918 29.1487 35.4918 30.8869C35.4918 34.5635 34.4834 37.588 32.47 39.9588C30.4601 42.3313 27.7419 44.0801 24.3154 45.2035C20.8924 46.3268 17.0191 46.8903 12.6939 46.8903C11.5288 46.8903 10.1663 46.8495 8.60652 46.7698C7.04507 46.6936 5.50385 46.5961 3.9795 46.4792C2.45515 46.3605 1.12809 46.2613 0 46.1815ZM24.0389 11.9706C23.211 11.9706 22.1942 12.2293 20.9902 12.7431C19.7845 13.2587 18.5148 13.932 17.1793 14.763C15.8438 15.5905 14.6027 16.5189 13.4561 17.5484C12.3095 18.5743 11.3686 19.602 10.6367 20.6314C9.90323 21.6573 9.53732 22.6052 9.53732 23.4735C9.53732 24.6606 10.2523 25.2524 11.6822 25.2524C12.5085 25.2524 13.5337 24.9972 14.7579 24.487C15.9804 23.9731 17.2484 23.2998 18.562 22.467C19.879 21.636 21.12 20.7076 22.2852 19.6817C23.4538 18.6522 24.4048 17.6246 25.1383 16.5987C25.8701 15.5692 26.2377 14.6195 26.2377 13.7495C26.2377 12.5642 25.5042 11.9706 24.0389 11.9706ZM24.2075 24.7775C23.3391 24.7775 22.2464 25.0539 20.9295 25.6068C19.6159 26.1596 18.245 26.8825 16.8151 27.7755C15.3852 28.665 14.0395 29.6608 12.7816 30.7664C11.522 31.872 10.4968 32.9812 9.70594 34.0904C8.91341 35.196 8.51883 36.2237 8.51883 37.1734C8.51883 38.4775 9.28944 39.1295 10.8323 39.1295C11.7362 39.1295 12.8457 38.8531 14.1643 38.3003C15.4813 37.744 16.8522 37.0104 18.2787 36.1032C19.7087 35.196 21.0526 34.2003 22.3122 33.1123C23.5752 32.0209 24.6004 30.9135 25.3879 29.7883C26.1787 28.665 26.575 27.6267 26.575 26.677C26.575 25.4119 25.7858 24.7775 24.2075 24.7775Z" fill="#282828"/>
<path d="M37.295 29.4623V25.0752H51.3986V29.4623H37.295Z" fill="#282828"/>
<path d="M53.7075 46.1815C54.9115 42.7424 55.8524 39.0374 56.5269 35.0685C57.2048 31.096 57.5454 27.0721 57.5454 22.9986C57.5454 19.3238 57.2351 15.6596 56.6146 12.006C55.994 8.34891 55.0245 4.84064 53.7075 1.48121C54.5742 1.36427 55.704 1.24555 57.0935 1.12684C58.4863 1.0099 59.9263 0.919532 61.4102 0.857517C62.8975 0.797274 64.2245 0.765381 65.3897 0.765381C67.9831 0.765381 70.531 0.924847 73.0317 1.24024C75.5358 1.5574 77.8105 2.11199 79.8576 2.90578C81.908 3.69603 83.5437 4.81052 84.7679 6.25104C85.9904 7.69333 86.6025 9.5396 86.6025 11.7934C86.6025 13.179 86.2619 14.3945 85.584 15.4434C84.9095 16.4888 84.0731 17.3765 83.0749 18.1083C82.08 18.8418 81.0936 19.4336 80.1139 19.8872C79.1375 20.3408 78.3282 20.6668 77.6857 20.8653C77.5373 20.9078 77.4631 21.0673 77.4631 21.3401C77.4631 21.5776 77.5576 21.6945 77.7464 21.6945C80.0751 21.5386 82.0969 21.8682 83.8101 22.6797C85.5233 23.4876 86.8487 24.6252 87.7896 26.0887C88.7288 27.5487 89.1993 29.1487 89.1993 30.8869C89.1993 34.5635 88.1909 37.588 86.1776 39.9588C84.1676 42.3313 81.4494 44.0801 78.023 45.2035C74.5999 46.3268 70.7266 46.8903 66.4015 46.8903C65.2363 46.8903 63.8738 46.8495 62.314 46.7698C60.7526 46.6936 59.2114 46.5961 57.687 46.4792C56.1627 46.3605 54.8356 46.2613 53.7075 46.1815ZM77.7464 11.9706C76.9185 11.9706 75.9017 12.2293 74.6977 12.7431C73.4921 13.2587 72.2223 13.932 70.8868 14.763C69.5513 15.5905 68.3103 16.5189 67.1636 17.5484C66.017 18.5743 65.0761 19.602 64.3443 20.6314C63.6107 21.6573 63.2448 22.6052 63.2448 23.4735C63.2448 24.6606 63.9598 25.2524 65.3897 25.2524C66.216 25.2524 67.2412 24.9972 68.4654 24.487C69.6879 23.9731 70.956 23.2998 72.2695 22.467C73.5865 21.636 74.8275 20.7076 75.9927 19.6817C77.1613 18.6522 78.1123 17.6246 78.8458 16.5987C79.5777 15.5692 79.9453 14.6195 79.9453 13.7495C79.9453 12.5642 79.2117 11.9706 77.7464 11.9706ZM77.915 24.7775C77.0466 24.7775 75.9539 25.0539 74.637 25.6068C73.3234 26.1596 71.9525 26.8825 70.5226 27.7755C69.0927 28.665 67.7471 29.6608 66.4891 30.7664C65.2295 31.872 64.2043 32.9812 63.4135 34.0904C62.6209 35.196 62.2264 36.2237 62.2264 37.1734C62.2264 38.4775 62.997 39.1295 64.5399 39.1295C65.4437 39.1295 66.5532 38.8531 67.8718 38.3003C69.1888 37.744 70.5597 37.0104 71.9862 36.1032C73.4162 35.196 74.7601 34.2003 76.0197 33.1123C77.2827 32.0209 78.3079 30.9135 79.0954 29.7883C79.8862 28.665 80.2825 27.6267 80.2825 26.677C80.2825 25.4119 79.4933 24.7775 77.915 24.7775Z" fill="#282828"/>
<path d="M105.333 46.8903C102.886 46.8903 100.78 46.3959 99.013 45.409C97.2459 44.4221 95.7856 43.0985 94.6356 41.44C93.4889 39.778 92.6323 37.9211 92.0658 35.8693C91.5026 33.814 91.2227 31.6984 91.2227 29.519C91.2227 27.3467 91.4941 25.2223 92.0388 23.1474C92.5868 21.0744 93.435 19.2068 94.5816 17.5484C95.7283 15.8864 97.1936 14.561 98.9793 13.5723C100.768 12.5854 102.886 12.0911 105.333 12.0911C107.775 12.0911 109.879 12.5854 111.646 13.5723C113.417 14.561 114.877 15.8864 116.024 17.5484C117.17 19.2068 118.015 21.0744 118.56 23.1474C119.108 25.2223 119.383 27.3467 119.383 29.519C119.383 31.6984 119.108 33.814 118.56 35.8693C118.015 37.9211 117.17 39.778 116.024 41.44C114.877 43.0985 113.417 44.4221 111.646 45.409C109.879 46.3959 107.775 46.8903 105.333 46.8903ZM101.947 25.9682C98.637 28.3354 96.4179 30.4882 95.2898 32.4249C94.1601 34.3633 93.897 35.825 94.5007 36.812C94.9492 37.6057 95.8901 38.0026 97.3201 38.0026C98.5965 38.0026 100.204 37.6182 102.143 36.8474C104.08 36.0731 106.252 34.8169 108.658 33.0769C111.967 30.6672 114.186 28.5055 115.316 26.5919C116.444 24.6748 116.707 23.2218 116.105 22.2332C115.654 21.4394 114.715 21.0425 113.285 21.0425C112.007 21.0425 110.409 21.4287 108.49 22.1977C106.574 22.9685 104.392 24.2247 101.947 25.9682Z" fill="#282828"/>
<path d="M119.489 46.1815C120.617 42.9036 121.461 39.9286 122.025 37.2585C122.591 34.5901 122.874 31.9996 122.874 29.4907C122.874 26.9817 122.591 24.3842 122.025 21.6945C121.461 19.0066 120.617 16.0441 119.489 12.8069H130.604L128.237 27.5629L129.141 27.6834C129.324 26.7337 129.511 25.589 129.7 24.246C129.889 22.9047 130.134 21.5315 130.436 20.1282C130.736 18.7249 131.177 17.4119 131.758 16.1876C132.341 14.9597 133.122 13.9692 134.098 13.218C135.078 12.4667 136.32 12.0911 137.828 12.0911C138.956 12.0911 140.216 12.3303 141.605 12.8069V23.1191C140.853 22.9206 140.158 22.8214 139.521 22.8214C137.902 22.8214 136.359 23.2679 134.894 24.1609C133.427 25.0504 132.149 26.2641 131.056 27.8039C129.963 29.3454 129.162 31.1137 128.655 33.1123C128.151 35.1074 128.038 37.2213 128.318 39.4556C128.601 41.6863 129.38 43.9277 130.658 46.1815H119.489Z" fill="#282828"/>
<path d="M173.03 0C171.901 3.24249 171.007 6.80037 170.346 10.6736C169.688 14.5434 169.314 18.5336 169.22 22.6443C169.128 26.755 169.395 30.8161 170.015 34.8275C170.636 38.839 171.641 42.6237 173.03 46.1816H160.505C161.031 44.5993 161.471 43.0879 161.827 41.6456C162.186 40.2051 162.443 38.8107 162.596 37.4641L161.746 37.4074C161.22 38.9914 160.561 40.5152 159.77 41.9787C158.982 43.4388 158.004 44.6224 156.836 45.5295C155.671 46.4367 154.242 46.8903 152.553 46.8903C150.856 46.8903 149.209 46.2773 147.609 45.0547C146.012 43.8321 144.705 41.8848 143.69 39.2147C142.673 36.5462 142.166 33.0964 142.166 28.867C142.166 23.5338 143.275 19.4248 145.498 16.542C147.718 13.6557 150.597 12.2116 154.131 12.2116C154.957 12.2116 155.907 12.3711 156.977 12.6865C158.052 13.0036 159.116 13.6557 160.168 14.6426C161.22 15.6313 162.104 17.1515 162.819 19.2069H163.668L161.915 0H173.03ZM152.607 25.9683C149.297 28.3355 147.078 30.4883 145.95 32.4249C144.82 34.3633 144.557 35.8251 145.16 36.812C145.609 37.6058 146.55 38.0027 147.98 38.0027C149.256 38.0027 150.863 37.6182 152.802 36.8475C154.74 36.0732 156.912 34.8169 159.318 33.077C162.631 30.6672 164.85 28.5056 165.975 26.592C167.103 24.6748 167.368 23.2219 166.771 22.2332C166.316 21.4394 165.375 21.0425 163.945 21.0425C162.667 21.0425 161.068 21.4288 159.149 22.1978C157.234 22.9685 155.052 24.2248 152.607 25.9683Z" fill="#282828"/>
<path d="M173.138 28.867C173.138 23.5337 174.247 19.4035 176.47 16.4782C178.69 13.5546 181.569 12.0911 185.103 12.0911C186.042 12.0911 187.123 12.2895 188.347 12.6864C189.57 13.0798 190.698 13.8399 191.733 14.9686C192.767 16.0937 193.47 17.7823 193.845 20.0361H194.694L193.568 12.8069H202.593C201.463 16.0441 200.616 19.0066 200.05 21.6945C199.487 24.3842 199.207 26.9817 199.207 29.4907C199.207 31.9996 199.487 34.5901 200.05 37.2585C200.616 39.9286 201.463 42.9036 202.593 46.1815H191.477C192.003 44.5993 192.443 43.0879 192.799 41.6456C193.158 40.2051 193.415 38.8106 193.568 37.464H192.718C192.192 39.048 191.533 40.5612 190.742 42.007C189.954 43.4493 188.976 44.6223 187.808 45.5295C186.643 46.4367 185.214 46.8903 183.525 46.8903C181.829 46.8903 180.181 46.2772 178.581 45.0546C176.984 43.832 175.677 41.8848 174.662 39.2146C173.645 36.5462 173.138 33.0964 173.138 28.867ZM183.633 25.9682C180.323 28.3354 178.104 30.4882 176.976 32.4249C175.846 34.3633 175.583 35.825 176.186 36.812C176.64 37.6057 177.579 38.0026 179.006 38.0026C180.287 38.0026 181.894 37.6182 183.828 36.8474C185.766 36.0731 187.939 34.8169 190.351 33.0769C193.659 30.6672 195.878 28.5055 197.008 26.5919C198.136 24.6748 198.399 23.2218 197.797 22.2332C197.347 21.4394 196.408 21.0425 194.978 21.0425C193.696 21.0425 192.094 21.4287 190.175 22.1977C188.26 22.9685 186.078 24.2247 183.633 25.9682Z" fill="#282828"/>
<path d="M233.564 0C232.434 3.24249 231.541 6.80037 230.88 10.6736C230.222 14.5434 229.848 18.5336 229.753 22.6443C229.662 26.755 229.929 30.8161 230.549 34.8275C231.17 38.839 232.175 42.6237 233.564 46.1816H221.039C221.565 44.5993 222.005 43.0879 222.361 41.6456C222.72 40.2051 222.976 38.8107 223.13 37.4641L222.28 37.4074C221.754 38.9914 221.094 40.5152 220.304 41.9787C219.516 43.4388 218.538 44.6224 217.37 45.5295C216.204 46.4367 214.776 46.8903 213.087 46.8903C211.39 46.8903 209.743 46.2773 208.142 45.0547C206.546 43.8321 205.239 41.8848 204.224 39.2147C203.207 36.5462 202.699 33.0964 202.699 28.867C202.699 23.5338 203.809 19.4248 206.031 16.542C208.252 13.6557 211.13 12.2116 214.665 12.2116C215.491 12.2116 216.44 12.3711 217.511 12.6865C218.585 13.0036 219.649 13.6557 220.702 14.6426C221.754 15.6313 222.637 17.1515 223.352 19.2069H224.202L222.448 0H233.564ZM213.14 25.9683C209.83 28.3355 207.611 30.4883 206.483 32.4249C205.353 34.3633 205.09 35.8251 205.694 36.812C206.143 37.6058 207.084 38.0027 208.513 38.0027C209.79 38.0027 211.397 37.6182 213.336 36.8475C215.274 36.0732 217.445 34.8169 219.852 33.077C223.165 30.6672 225.384 28.5056 226.509 26.592C227.637 24.6748 227.902 23.2219 227.305 22.2332C226.85 21.4394 225.909 21.0425 224.479 21.0425C223.201 21.0425 221.602 21.4288 219.683 22.1978C217.767 22.9685 215.586 24.2248 213.14 25.9683Z" fill="#282828"/>
<path d="M247.782 46.8903C245.335 46.8903 243.229 46.3959 241.462 45.409C239.694 44.4221 238.234 43.0985 237.084 41.44C235.938 39.778 235.081 37.9211 234.514 35.8693C233.951 33.814 233.671 31.6984 233.671 29.519C233.671 27.3467 233.943 25.2223 234.487 23.1474C235.035 21.0744 235.884 19.2068 237.03 17.5484C238.177 15.8864 239.642 14.561 241.428 13.5723C243.217 12.5854 245.335 12.0911 247.782 12.0911C250.223 12.0911 252.328 12.5854 254.095 13.5723C255.865 14.561 257.326 15.8864 258.472 17.5484C259.619 19.2068 260.464 21.0744 261.008 23.1474C261.556 25.2223 261.831 27.3467 261.831 29.519C261.831 31.6984 261.556 33.814 261.008 35.8693C260.464 37.9211 259.619 39.778 258.472 41.44C257.326 43.0985 255.865 44.4221 254.095 45.409C252.328 46.3959 250.223 46.8903 247.782 46.8903ZM244.396 25.9682C241.086 28.3354 238.867 30.4882 237.738 32.4249C236.609 34.3633 236.346 35.825 236.949 36.812C237.398 37.6057 238.339 38.0026 239.769 38.0026C241.045 38.0026 242.652 37.6182 244.591 36.8474C246.529 36.0731 248.701 34.8169 251.107 33.0769C254.415 30.6672 256.634 28.5055 257.764 26.5919C258.892 24.6748 259.155 23.2218 258.553 22.2332C258.103 21.4394 257.164 21.0425 255.734 21.0425C254.456 21.0425 252.857 21.4287 250.938 22.1977C249.023 22.9685 246.841 24.2247 244.396 25.9682Z" fill="#282828"/>
<path d="M263.239 46.1815V34.4448C266.247 35.7063 268.962 36.5958 271.386 37.1096C273.815 37.6252 275.949 37.8822 277.794 37.8822C280.352 37.8822 282.279 37.5172 283.574 36.7836C284.873 36.0518 285.524 35.2722 285.524 34.4448C285.524 33.5766 284.836 33.0415 283.46 32.843C282.087 32.6446 280.406 32.5064 278.415 32.4249C276.796 32.3504 275.103 32.2229 273.336 32.0421C271.569 31.8632 269.923 31.4964 268.398 30.9436C266.874 30.3908 265.641 29.5332 264.702 28.3709C263.761 27.205 263.292 25.6121 263.292 23.5939C263.292 21.776 263.78 19.9864 264.756 18.2288C265.736 16.4711 267.326 15.0093 269.525 13.8417C271.727 12.6758 274.653 12.0911 278.3 12.0911C279.504 12.0911 280.689 12.1619 281.855 12.3037C283.018 12.4419 284.129 12.6084 285.186 12.8069V23.8916C284.507 23.4947 283.677 23.0801 282.698 22.6442C281.721 22.2101 280.509 21.8345 279.062 21.5173C277.614 21.2019 275.799 21.0425 273.619 21.0425C272.3 21.0425 270.955 21.2409 269.579 21.6378C268.206 22.0347 267.07 22.5592 266.166 23.2112C265.265 23.8633 264.817 24.6039 264.817 25.4296C264.817 26.2234 265.136 26.7106 265.775 26.8896C266.412 27.065 267.033 27.1518 267.636 27.1518C268.503 27.1518 269.491 27.0933 270.597 26.9746C271.707 26.8577 272.845 26.7974 274.01 26.7974C275.664 26.7974 277.281 26.925 278.86 27.1802C280.441 27.4353 281.892 27.9102 283.21 28.6047C284.527 29.2958 285.571 30.2738 286.34 31.5389C287.112 32.8058 287.5 34.4448 287.5 36.4576C287.5 38.5519 287.057 40.2812 286.171 41.6456C285.284 43.0117 284.109 44.0801 282.644 44.8491C281.177 45.6198 279.541 46.1514 277.733 46.4438C275.929 46.7414 274.088 46.8903 272.209 46.8903C271.381 46.8903 270.403 46.8495 269.275 46.7698C268.145 46.6936 267.044 46.5961 265.97 46.4792C264.899 46.3605 263.989 46.2613 263.239 46.1815Z" fill="#282828"/>
</svg>
